<svg width="167" height="101" viewBox="0 0 167 101" fill="none" xmlns="http://www.w3.org/2000/svg">
<path fill-rule="evenodd" clip-rule="evenodd" d="M160 16C163.866 16 167 19.134 167 23C167 26.866 163.866 30 160 30H120C123.866 30 127 33.134 127 37C127 40.866 123.866 44 120 44H142C145.866 44 149 47.134 149 51C149 54.866 145.866 58 142 58H131.826C126.952 58 123 61.134 123 65C123 67.5773 125 69.9107 129 72C132.866 72 136 75.134 136 79C136 82.866 132.866 86 129 86H46C42.134 86 39 82.866 39 79C39 75.134 42.134 72 46 72H7C3.13401 72 0 68.866 0 65C0 61.134 3.13401 58 7 58H47C50.866 58 54 54.866 54 51C54 47.134 50.866 44 47 44H22C18.134 44 15 40.866 15 37C15 33.134 18.134 30 22 30H62C58.134 30 55 26.866 55 23C55 19.134 58.134 16 62 16H160ZM160 44C163.866 44 167 47.134 167 51C167 54.866 163.866 58 160 58C156.134 58 153 54.866 153 51C153 47.134 156.134 44 160 44Z" fill="#F2F2F2"/>
<path d="M137.209 50.1895L136.319 49.7494C132.889 48.2294 128.829 48.8295 124.119 51.5395C123.609 51.8395 123.109 52.1494 122.609 52.4794C118.539 55.1594 114.979 58.9395 111.919 63.8195C111.849 63.9295 111.779 64.0495 111.709 64.1595C111.479 64.5395 111.249 64.9095 111.029 65.2995C110.389 66.3995 109.809 67.4995 109.279 68.5895C106.909 73.5195 105.689 78.3395 105.629 83.0495C105.629 83.1795 105.629 83.3095 105.629 83.4395C105.629 89.3195 107.439 93.2795 111.039 95.3395C114.649 97.3895 119.009 96.9394 124.129 93.9894C129.249 91.0294 133.609 86.4494 137.219 80.2294C140.819 73.9994 142.629 67.9595 142.629 62.0895C142.629 56.2195 140.819 52.2495 137.219 50.1895H137.209ZM131.519 76.9794C131.149 77.6194 130.719 78.0794 130.219 78.3694C129.729 78.6494 129.299 78.6894 128.929 78.4794L123.379 75.3095C123.009 75.0995 122.729 74.7894 122.549 74.3594C122.359 73.9394 122.269 73.4394 122.269 72.8794V63.2195C122.269 62.6495 122.459 62.0495 122.829 61.4095C123.199 60.7795 123.629 60.3095 124.119 60.0295C124.609 59.7495 125.049 59.7095 125.419 59.9195C125.789 60.1295 125.969 60.5195 125.969 61.0795V70.8495L131.519 74.0094C131.889 74.2194 132.069 74.6095 132.069 75.1795C132.069 75.7495 131.889 76.3394 131.519 76.9794Z" stroke="#7E7E7E"/>
<path d="M132.07 75.18C132.07 75.74 131.89 76.34 131.52 76.98C131.15 77.62 130.72 78.08 130.22 78.37C129.73 78.65 129.299 78.69 128.929 78.48L123.379 75.31C123.009 75.1 122.73 74.79 122.55 74.36C122.36 73.94 122.27 73.44 122.27 72.88V69L125.97 70.8501L131.52 74.01C131.89 74.22 132.07 74.61 132.07 75.18Z" stroke="#7E7E7E"/>
<path d="M125.97 61.0803V70.8503L122.27 69.0002V63.2203C122.27 62.6503 122.46 62.0502 122.83 61.4102C123.2 60.7802 123.629 60.3102 124.119 60.0302C124.609 59.7502 125.049 59.7102 125.419 59.9202C125.789 60.1302 125.97 60.5203 125.97 61.0803Z" stroke="#7E7E7E"/>
<path d="M134.249 16.0897C133.879 15.5897 133.449 15.2097 132.919 14.9497L132.729 14.8596C132.359 14.7096 131.959 14.6197 131.519 14.5797L115.219 13.2396L105.619 12.4497C105.069 12.4097 104.479 12.4696 103.869 12.6096C103.249 12.7596 102.599 13.0197 101.929 13.4197C101.249 13.8097 100.619 14.2797 100.029 14.8297C99.4391 15.3797 98.839 16.0097 98.229 16.7197L78.8291 40.7197L72.3291 48.7597C72.0391 49.1197 71.769 49.4797 71.509 49.8497C70.729 50.9797 70.0891 52.1697 69.5991 53.4097C68.9591 55.0597 68.6289 56.6597 68.6289 58.2097V91.9597C68.6289 93.5197 68.9591 94.7497 69.5991 95.6397C69.8791 96.0297 70.2091 96.3397 70.5891 96.5797L70.6189 96.5997C71.1089 96.9097 71.6791 97.0897 72.3291 97.1497L93.509 98.9297C94.739 98.9897 95.9291 98.1997 97.0691 96.5497C98.2091 94.8997 98.6589 93.2697 98.4089 91.6397C98.2889 91.1497 98.229 90.5597 98.229 89.8897V87.7197C98.229 87.2597 98.239 86.8097 98.259 86.3497C98.479 79.6197 100.389 72.7197 103.989 65.6597C104.559 64.5497 105.159 63.4397 105.809 62.3197C106.039 61.9197 106.269 61.5297 106.499 61.1497C106.509 61.1397 106.509 61.1296 106.519 61.1296C110.749 54.1496 115.679 48.7097 121.319 44.8297C122.059 44.3097 122.809 43.8296 123.579 43.3696C123.759 43.2596 123.939 43.1597 124.119 43.0497C125.289 42.3697 126.449 41.7997 127.589 41.3097C128.729 40.8297 129.819 40.4697 130.869 40.2097C131.919 39.9597 132.909 39.2197 133.829 37.9697C134.759 36.7297 135.219 35.4797 135.219 34.1997V19.7697C135.219 18.2097 134.889 16.9897 134.249 16.0897ZM126.059 29.3497C125.819 30.6597 125.259 31.8497 124.399 32.9097L118.139 40.6597L118.069 40.7496L105.969 55.7396L105.619 56.1697C105.069 56.8397 104.479 57.4697 103.869 58.0297C103.359 58.4997 102.819 58.9097 102.269 59.2597C102.159 59.3297 102.039 59.3997 101.929 59.4697C101.249 59.8597 100.599 60.1297 99.979 60.2797C99.369 60.4197 98.779 60.4697 98.229 60.4397L88.8091 59.6196L82.3889 59.0597L79.5391 58.8097C78.6791 58.7397 78.1091 58.2097 77.8291 57.1997C77.5591 56.1897 77.6589 55.0497 78.1589 53.7797C78.6489 52.4997 79.3889 51.4397 80.3789 50.5797C81.3589 49.7297 82.2889 49.3397 83.1489 49.4097L87.3689 49.7597L94.3291 50.3397L101.929 50.9796L111.639 38.9597L120.699 27.7296C121.559 26.6596 122.489 25.9897 123.469 25.6997C124.459 25.4197 125.199 25.6197 125.689 26.3297C126.189 27.0397 126.309 28.0397 126.059 29.3497Z" stroke="#7E7E7E"/>
<path d="M132.729 14.8596C132.359 14.7096 131.959 14.6197 131.519 14.5797L115.219 13.2396L105.619 12.4497C105.069 12.4097 104.479 12.4696 103.869 12.6096C103.249 12.7596 102.599 13.0197 101.929 13.4197C101.249 13.8097 100.619 14.2797 100.029 14.8297C99.4391 15.3797 98.839 16.0097 98.229 16.7197L78.8291 40.7197L72.3291 48.7597C72.0391 49.1197 71.769 49.4797 71.509 49.8497C70.729 50.9797 70.0891 52.1697 69.5991 53.4097C68.9591 55.0597 68.6289 56.6597 68.6289 58.2097V91.9597C68.6289 93.5197 68.9591 94.7497 69.5991 95.6397C69.8791 96.0297 70.2091 96.3397 70.5891 96.5797L51.249 86.9097L50.6189 86.5997C50.2289 86.3597 49.8891 86.0397 49.5991 85.6397C48.9591 84.7497 48.6289 83.5197 48.6289 81.9597V48.2097C48.6289 46.6597 48.9591 45.0597 49.5991 43.4097C50.2491 41.7597 51.1591 40.2097 52.3291 38.7597L78.229 6.7197C78.839 6.0097 79.4391 5.37967 80.0291 4.82967C80.6191 4.27967 81.249 3.80964 81.929 3.41964C82.599 3.01964 83.2489 2.75958 83.8689 2.60958C84.4789 2.46958 85.0689 2.40967 85.6189 2.44967L111.519 4.57967C112.159 4.62967 112.719 4.80958 113.199 5.10958L132.729 14.8596Z" stroke="#7E7E7E"/>
<path d="M136.318 49.7501C132.888 48.2301 128.828 48.8301 124.118 51.5401C123.608 51.8401 123.108 52.1501 122.608 52.4801C118.538 55.1601 114.978 58.9401 111.918 63.8201C111.848 63.9301 111.778 64.0501 111.708 64.1601C111.478 64.5401 111.248 64.9101 111.028 65.3001C110.388 66.4001 109.808 67.5002 109.278 68.5902C106.908 73.5202 105.688 78.3401 105.628 83.0501C105.628 83.1801 105.628 83.3101 105.628 83.4401C105.628 89.3201 107.438 93.2802 111.038 95.3402L98.2383 88.9401V87.7202C98.2383 87.2602 98.2483 86.8102 98.2683 86.3502C98.4883 79.6202 100.398 72.7201 103.998 65.6601C104.568 64.5501 105.168 63.4401 105.818 62.3201C106.048 61.9201 106.278 61.5301 106.508 61.1501C106.518 61.1401 106.518 61.1301 106.528 61.1301C110.758 54.1501 115.688 48.7102 121.328 44.8302C122.068 44.3102 122.818 43.8301 123.588 43.3701L136.328 49.7501H136.318Z" stroke="#7E7E7E"/>
<path d="M126.06 29.3499C125.82 30.6599 125.26 31.8499 124.4 32.9099L118.14 40.6599L118.07 40.7498L105.97 55.7398L105.62 56.1699C105.07 56.8399 104.48 57.4699 103.87 58.0299C103.36 58.4999 102.82 58.9098 102.27 59.2598C102.16 59.3298 102.04 59.3999 101.93 59.4699C101.25 59.8599 100.6 60.1299 99.9799 60.2799C99.3699 60.4199 98.7799 60.4699 98.2299 60.4399L88.81 59.6198L82.3898 59.0599L79.5399 58.8099C78.6799 58.7399 78.11 58.2099 77.83 57.1999C77.56 56.1899 77.6598 55.0499 78.1598 53.7799C78.6498 52.4999 79.3898 51.4399 80.3798 50.5799C81.3598 49.7299 82.2898 49.3399 83.1498 49.4099L87.3698 49.7598L94.33 50.3399L101.93 50.9798L111.64 38.9599L120.7 27.7298C121.56 26.6598 122.49 25.9899 123.47 25.6999C124.46 25.4199 125.2 25.6199 125.69 26.3299C126.19 27.0399 126.31 28.0399 126.06 29.3499Z" stroke="#7E7E7E"/>
</svg>
